<?xml version="1.0" standalone="no"?>
<!DOCTYPE svg PUBLIC "-//W3C//DTD SVG 20010904//EN"
 "http://www.w3.org/TR/2001/REC-SVG-20010904/DTD/svg10.dtd">
<svg version="1.0" xmlns="http://www.w3.org/2000/svg"
 width="1571.000000pt" height="1571.000000pt" viewBox="0 0 1571.000000 1571.000000"
 preserveAspectRatio="xMidYMid meet">
<metadata>
Created by potrace 1.14, written by Peter Selinger 2001-2017
</metadata>
<g transform="translate(0.000000,1571.000000) scale(0.100000,-0.100000)"
fill="#000000" stroke="none">
<path d="M2125 14323 c-398 -34 -789 -210 -1081 -486 -394 -372 -588 -844
-571 -1387 9 -267 60 -482 171 -715 265 -555 793 -941 1394 -1020 492 -65 982
68 1367 370 104 82 266 248 343 353 346 469 445 1096 259 1648 -161 479 -490
848 -952 1070 -279 134 -613 194 -930 167z"/>
<path d="M7245 14323 c-401 -34 -790 -210 -1087 -492 -310 -294 -494 -653
-554 -1078 -19 -141 -15 -420 10 -552 134 -717 645 -1266 1351 -1450 189 -50
490 -65 690 -36 416 61 761 238 1055 541 351 362 526 823 507 1330 -10 264
-66 482 -187 729 -274 562 -815 939 -1441 1005 -89 9 -256 11 -344 3z"/>
<path d="M12365 14324 c-632 -66 -1160 -420 -1454 -975 -142 -269 -208 -564
-198 -889 6 -182 19 -280 61 -434 190 -693 792 -1218 1504 -1311 276 -36 540
-13 807 72 287 92 526 243 751 475 369 382 552 915 493 1446 -23 217 -77 400
-179 607 -256 524 -743 888 -1325 990 -87 15 -379 27 -460 19z"/>
<path d="M2115 9203 c-432 -53 -779 -210 -1071 -486 -316 -299 -504 -664 -560
-1091 -23 -172 -14 -428 20 -591 128 -610 536 -1098 1114 -1331 330 -133 743
-161 1098 -75 333 81 622 248 870 502 261 268 417 574 491 964 13 68 17 143
17 305 0 193 -3 228 -27 340 -75 357 -226 649 -466 902 -299 315 -692 510
-1123 557 -91 10 -296 13 -363 4z"/>
<path d="M7235 9203 c-436 -53 -781 -211 -1077 -492 -310 -294 -494 -653 -554
-1078 -19 -141 -15 -420 10 -552 118 -633 530 -1137 1124 -1377 329 -133 745
-161 1097 -75 340 83 625 249 875 507 260 268 414 571 487 959 13 68 17 143
17 305 0 193 -3 228 -27 340 -37 175 -77 293 -157 455 -272 558 -811 936
-1432 1004 -91 10 -296 13 -363 4z"/>
<path d="M12355 9204 c-244 -36 -375 -69 -535 -137 -452 -191 -827 -579 -994
-1028 -88 -239 -121 -441 -113 -699 6 -182 19 -280 61 -434 130 -474 468 -892
906 -1120 573 -298 1257 -273 1804 66 278 172 529 452 673 748 115 237 169
454 180 720 12 315 -45 586 -187 875 -255 524 -741 886 -1325 991 -86 15 -406
27 -470 18z"/>
<path d="M2047 4075 c-527 -72 -993 -367 -1287 -815 -205 -313 -299 -656 -287
-1050 7 -204 33 -347 97 -534 221 -641 797 -1112 1470 -1202 208 -27 455 -16
655 31 350 82 639 247 895 511 260 268 414 571 487 959 13 68 17 143 17 305 0
194 -3 227 -27 342 -80 380 -255 700 -523 958 -152 146 -289 240 -489 336
-305 147 -672 204 -1008 159z"/>
<path d="M7167 4075 c-661 -90 -1231 -542 -1460 -1156 -89 -236 -122 -440
-114 -699 6 -182 19 -280 61 -434 190 -692 792 -1217 1506 -1312 136 -18 368
-18 495 1 416 61 761 238 1055 541 259 267 414 572 487 959 13 68 17 143 17
305 0 194 -3 228 -27 341 -37 176 -77 291 -156 454 -274 558 -812 936 -1433
1004 -127 14 -309 12 -431 -4z"/>
<path d="M12284 4075 c-664 -95 -1228 -543 -1457 -1156 -89 -236 -122 -440
-114 -699 6 -182 19 -280 61 -434 190 -691 793 -1217 1504 -1311 491 -65 980
68 1367 370 119 93 290 275 373 397 202 297 304 606 319 958 13 316 -45 585
-186 875 -257 524 -742 886 -1326 991 -127 22 -414 27 -541 9z"/>
</g>
</svg>
